<?xml version='1.0' encoding='utf-8'?>
<svg xmlns="http://www.w3.org/2000/svg" width="91.44mm" height="91.44mm" version="1.1" style="shape-rendering:geometricPrecision; text-rendering:geometricPrecision; image-rendering:optimizeQuality; fill-rule:evenodd; clip-rule:evenodd" viewBox="0 0 184.23 184.23"> <defs> <style type="text/css">  .fil0 {fill:#F0F0F0} .fil1 {fill:#011627;fill-rule:nonzero}  </style> </defs> <g id="Camada_x0020_1"> <metadata id="CorelCorpID_0Corel-Layer"/> <polygon class="fil0" points="-0,0 184.23,0 184.23,184.23 -0,184.23 "/> <path class="fil1" d="M60.57 60.7l11.17 0 4.95 -5.94c0.34,-0.4 0.82,-0.61 1.31,-0.61l0 -0.01 28.23 0c0.58,0 1.1,0.29 1.41,0.74l4.85 5.82 11.17 0c4.56,0 8.7,1.86 11.7,4.86 3,3 4.86,7.14 4.86,11.7l0 36.26c0,4.56 -1.86,8.7 -4.86,11.7 -3,3 -7.14,4.86 -11.7,4.86l-63.08 0c-4.56,0 -8.7,-1.86 -11.7,-4.86 -3,-3 -4.86,-7.14 -4.86,-11.7l0 -36.26c0,-4.56 1.86,-8.7 4.86,-11.7 3,-3 7.14,-4.86 11.7,-4.86zm31.54 13.38c5.89,0 11.22,2.39 15.07,6.24 3.86,3.86 6.24,9.19 6.24,15.07 0,5.89 -2.39,11.21 -6.24,15.07 -3.86,3.86 -9.19,6.24 -15.07,6.24 -5.89,0 -11.22,-2.39 -15.07,-6.24 -3.86,-3.86 -6.24,-9.19 -6.24,-15.07 0,-5.89 2.39,-11.22 6.24,-15.07 3.86,-3.86 9.19,-6.24 15.07,-6.24zm12.66 8.66c-3.24,-3.24 -7.72,-5.24 -12.66,-5.24 -4.94,0 -9.42,2 -12.66,5.24 -3.24,3.24 -5.24,7.72 -5.24,12.66 0,4.94 2,9.42 5.24,12.66 3.24,3.24 7.72,5.24 12.66,5.24 4.94,0 9.42,-2 12.66,-5.24 3.24,-3.24 5.24,-7.72 5.24,-12.66 0,-4.94 -2.01,-9.42 -5.24,-12.66zm-32.24 -18.62l-11.96 0c-3.61,0 -6.9,1.48 -9.28,3.86 -2.38,2.38 -3.86,5.67 -3.86,9.29l0 36.26c0,3.61 1.48,6.9 3.86,9.28 2.38,2.38 5.67,3.86 9.28,3.86l63.08 0c3.61,0 6.9,-1.48 9.28,-3.86 2.38,-2.38 3.86,-5.67 3.86,-9.28l0 -36.26c0,-3.61 -1.48,-6.9 -3.86,-9.29 -2.38,-2.38 -5.67,-3.86 -9.28,-3.86l-11.96 0 0 -0.01c-0.49,0 -0.97,-0.21 -1.31,-0.61l-4.95 -5.94 -26.65 0 -4.85 5.82c-0.31,0.45 -0.82,0.74 -1.41,0.74z"/> </g> </svg>